<?xml version="1.0" encoding="UTF-8" standalone="no"?>
<!-- Created with Inkscape (http://www.inkscape.org/) -->

<svg
   width="1000"
   height="700"
   viewBox="0 0 264.58333 185.20834"
   version="1.1"
   id="svg5"
   inkscape:version="1.1.1 (3bf5ae0d25, 2021-09-20)"
   sodipodi:docname="drawing.svg"
   xmlns:inkscape="http://www.inkscape.org/namespaces/inkscape"
   xmlns:sodipodi="http://sodipodi.sourceforge.net/DTD/sodipodi-0.dtd"
   xmlns="http://www.w3.org/2000/svg"
   xmlns:svg="http://www.w3.org/2000/svg">
  <sodipodi:namedview
     id="namedview7"
     pagecolor="#ffffff"
     bordercolor="#666666"
     borderopacity="1.0"
     inkscape:pageshadow="2"
     inkscape:pageopacity="0.0"
     inkscape:pagecheckerboard="0"
     inkscape:document-units="px"
     showgrid="false"
     units="px"
     inkscape:zoom="0.73571429"
     inkscape:cx="335.04854"
     inkscape:cy="288.15534"
     inkscape:window-width="1362"
     inkscape:window-height="704"
     inkscape:window-x="-7"
     inkscape:window-y="2"
     inkscape:window-maximized="0"
     inkscape:current-layer="layer1" />
  <defs
     id="defs2">
    <rect
       x="66.601942"
       y="278.64078"
       width="103.30097"
       height="46.213592"
       id="rect32463" />
  </defs>
  <g
     inkscape:label="Layer 1"
     inkscape:groupmode="layer"
     id="layer1">
    <rect
       style="fill:#000000;fill-opacity:0.88345;stroke-width:2.19358;stroke-linecap:round;stroke-linejoin:round"
       id="rect846"
       width="55.930649"
       height="183.94798"
       x="0.28339666"
       y="0.14169867" />
    <text
       xml:space="preserve"
       style="font-style:normal;font-weight:normal;font-size:6.0628px;line-height:1.25;font-family:sans-serif;fill:#ffffff;fill-opacity:1;stroke:none;stroke-width:0.151571"
       x="1.8831706"
       y="7.7237329"
       id="text9400"
       transform="scale(1.0288697,0.97194037)"><tspan
         sodipodi:role="line"
         id="tspan9398"
         style="fill:#ffffff;fill-opacity:1;stroke-width:0.151571"
         x="1.8831706"
         y="7.7237329">Ceramic Journal</tspan></text>
    <path
       id="path16294"
       style="fill:#00ff00;fill-opacity:1;stroke-width:0;stroke-linecap:round;stroke-linejoin:round;stroke-miterlimit:4;stroke-dasharray:none"
       d="m 8.6515133,54.127332 v 0.02222 c -0.023081,-4.61e-4 -0.046165,-7.94e-4 -0.06925,-10e-4 -3.4624577,6.8e-5 -6.2693173,2.806927 -6.2693847,6.269385 -2.171e-4,3.462659 2.8067259,6.269832 6.2693847,6.2699 0.023088,-7.39e-4 0.046172,-0.0016 0.06925,-0.0026 v 0.01707 H 46.628006 v -0.02273 c 3.372161,-0.119937 6.044533,-2.887301 6.04666,-6.261593 -4.37e-4,-3.37551 -2.673283,-6.144753 -6.04666,-6.264734 v -0.02584 z"
       sodipodi:nodetypes="ccccccccccccc" />
    <path
       style="fill:#ffffff;fill-opacity:1;stroke:#ffffff;stroke-width:0.39087;stroke-linecap:butt;stroke-linejoin:miter;stroke-miterlimit:4;stroke-dasharray:none;stroke-opacity:1"
       d="m 8.6777333,57.358093 v 5.929393"
       id="path16643" />
    <path
       style="fill:#ffffff;fill-opacity:1;stroke:#ffffff;stroke-width:0.39087;stroke-linecap:butt;stroke-linejoin:miter;stroke-miterlimit:4;stroke-dasharray:none;stroke-opacity:1"
       d="M 5.7130386,60.32279 H 11.64243"
       id="path16645" />
    <rect
       style="fill:none;fill-opacity:0.171196;stroke:#000000;stroke-width:0.316228;stroke-linecap:round;stroke-linejoin:round;stroke-miterlimit:4;stroke-dasharray:none;stroke-opacity:1"
       id="rect25141"
       width="77.987595"
       height="84.820526"
       x="62.644695"
       y="11.264649" />
    <text
       xml:space="preserve"
       style="font-style:normal;font-weight:normal;font-size:5.33942px;line-height:1.25;font-family:sans-serif;fill:#000000;fill-opacity:1;stroke:none;stroke-width:0.133486"
       x="101.05655"
       y="91.746841"
       id="text30941-3"><tspan
         sodipodi:role="line"
         id="tspan30939-9"
         style="stroke-width:0.133486"
         x="101.05655"
         y="91.746841">tags</tspan></text>
    <text
       xml:space="preserve"
       style="font-style:normal;font-weight:normal;font-size:5.33942px;line-height:1.25;font-family:sans-serif;fill:#000000;fill-opacity:1;stroke:none;stroke-width:0.133486"
       x="86.042091"
       y="91.836746"
       id="text30941-8"><tspan
         sodipodi:role="line"
         id="tspan30939-6"
         style="stroke-width:0.133486"
         x="86.042091"
         y="91.836746">tags</tspan></text>
    <text
       xml:space="preserve"
       style="font-style:normal;font-weight:normal;font-size:4.76378px;line-height:1.25;font-family:sans-serif;fill:#000000;fill-opacity:1;stroke:none;stroke-width:0.119095"
       x="67.653664"
       y="16.527309"
       id="text28335"><tspan
         sodipodi:role="line"
         id="tspan28333"
         style="stroke-width:0.119095"
         x="67.653664"
         y="16.527309">Title</tspan></text>
    <text
       xml:space="preserve"
       style="font-style:normal;font-weight:normal;font-size:5.33942px;line-height:1.25;font-family:sans-serif;fill:#000000;fill-opacity:1;stroke:none;stroke-width:0.133486"
       x="70.514793"
       y="91.685257"
       id="text30941"><tspan
         sodipodi:role="line"
         id="tspan30939"
         style="stroke-width:0.133486"
         x="70.514793"
         y="91.685257">tags</tspan></text>
    <text
       xml:space="preserve"
       style="font-style:normal;font-weight:normal;font-size:5.33942px;line-height:1.25;font-family:sans-serif;fill:#000000;fill-opacity:1;stroke:none;stroke-width:0.133486"
       x="117.23978"
       y="91.926659"
       id="text30941-1"><tspan
         sodipodi:role="line"
         id="tspan30939-61"
         style="stroke-width:0.133486"
         x="117.23978"
         y="91.926659">tags</tspan></text>
    <text
       xml:space="preserve"
       style="font-style:normal;font-weight:normal;font-size:6.02848px;line-height:1.25;font-family:sans-serif;fill:#ffffff;fill-opacity:1;stroke:#ffffff;stroke-width:0.150712;stroke-opacity:1"
       x="13.991643"
       y="62.341465"
       id="text39548"><tspan
         sodipodi:role="line"
         id="tspan39546"
         style="fill:#ffffff;fill-opacity:1;stroke:#ffffff;stroke-width:0.150712;stroke-opacity:1"
         x="13.991643"
         y="62.341465">New</tspan></text>
    <path
       style="fill:#ffffff;fill-opacity:1;stroke:#ffffff;stroke-width:0.154101px;stroke-linecap:butt;stroke-linejoin:miter;stroke-opacity:1"
       d="m 44.733276,58.962257 h 3.874978 l -1.965232,3.403881 z"
       id="path40081" />
    <text
       xml:space="preserve"
       style="font-style:normal;font-weight:normal;font-size:6.0628px;line-height:1.25;font-family:sans-serif;fill:#000000;fill-opacity:1;stroke:none;stroke-width:0.151571"
       x="239.41656"
       y="7.2283649"
       id="text9400-7"
       transform="scale(1.0288697,0.97194037)"><tspan
         sodipodi:role="line"
         id="tspan9398-8"
         style="stroke-width:0.151571"
         x="239.41656"
         y="7.2283649">date</tspan></text>
    <path
       id="path48355"
       style="fill:#646464;fill-opacity:1;stroke-width:0;stroke-linecap:round;stroke-linejoin:round;stroke-miterlimit:4;stroke-dasharray:none"
       d="m 8.6515133,17.085663 v 0.02222 c -0.023081,-4.61e-4 -0.046165,-7.94e-4 -0.06925,-0.001 -3.4624577,6.8e-5 -6.2693173,2.806927 -6.2693847,6.269385 -2.171e-4,3.462659 2.8067259,6.269832 6.2693847,6.2699 0.023088,-7.39e-4 0.046172,-0.0016 0.06925,-0.0026 v 0.01707 H 46.628006 v -0.02273 c 3.372161,-0.119937 6.044533,-2.887301 6.04666,-6.261593 -4.37e-4,-3.37551 -2.673283,-6.144753 -6.04666,-6.264734 v -0.02584 z"
       sodipodi:nodetypes="ccccccccccccc" />
    <text
       xml:space="preserve"
       style="font-style:normal;font-weight:normal;font-size:6.02848px;line-height:1.25;font-family:sans-serif;fill:#ffffff;fill-opacity:1;stroke:none;stroke-width:0.150712"
       x="6.9809566"
       y="25.708862"
       id="text39548-1"><tspan
         sodipodi:role="line"
         id="tspan39546-5"
         style="fill:#ffffff;fill-opacity:1;stroke-width:0.150712"
         x="6.9809566"
         y="25.708862">Search</tspan></text>
    <path
       id="path50306"
       style="fill:#646464;fill-opacity:1;stroke-width:0;stroke-linecap:round;stroke-linejoin:round;stroke-miterlimit:4;stroke-dasharray:none"
       d="m 8.6515133,70.002333 v 0.02222 c -0.023081,-4.61e-4 -0.046165,-7.94e-4 -0.06925,-10e-4 -3.4624577,6.8e-5 -6.2693173,2.806927 -6.2693847,6.269385 -2.171e-4,3.462659 2.8067259,6.269832 6.2693847,6.2699 0.023088,-7.39e-4 0.046172,-0.0016 0.06925,-0.0026 v 0.01707 H 46.628006 v -0.02273 c 3.372161,-0.119937 6.044533,-2.887301 6.04666,-6.261593 -4.37e-4,-3.37551 -2.673283,-6.144753 -6.04666,-6.264734 v -0.02584 z"
       sodipodi:nodetypes="ccccccccccccc" />
    <text
       xml:space="preserve"
       style="font-style:normal;font-weight:normal;font-size:6.02848px;line-height:1.25;font-family:sans-serif;white-space:pre;inline-size:0;fill:#ffffff;fill-opacity:1;stroke:none;stroke-width:0.150712"
       x="13.991643"
       y="57.049797"
       id="text50310"
       transform="translate(-5.2916667,21.166667)"><tspan
         id="tspan50308"
         style="fill:#ffffff;fill-opacity:1;stroke-width:0.150712"
         x="13.991643"
         y="57.049797">Tags</tspan></text>
    <path
       style="fill:#ffffff;fill-opacity:1;stroke:none;stroke-width:0.154101px;stroke-linecap:butt;stroke-linejoin:miter;stroke-opacity:1"
       d="m 44.733276,74.837258 h 3.874978 l -1.965232,3.403881 z"
       id="path50312" />
    <text
       xml:space="preserve"
       style="font-style:normal;font-weight:normal;font-size:3.79958px;line-height:1.25;font-family:sans-serif;fill:#000000;fill-opacity:1;stroke:none;stroke-width:0.0949898"
       x="68.207069"
       y="23.456034"
       id="text29185"><tspan
         sodipodi:role="line"
         id="tspan29183"
         style="stroke-width:0.0949898"
         x="68.207069"
         y="23.456034">Notes</tspan></text>
    <path
       id="path53559"
       style="fill:#646464;fill-opacity:1;stroke-width:0;stroke-linecap:round;stroke-linejoin:round;stroke-miterlimit:4;stroke-dasharray:none"
       d="m 8.6515133,38.252331 v 0.02222 c -0.023081,-4.61e-4 -0.046165,-7.94e-4 -0.06925,-0.001 -3.4624577,6.8e-5 -6.2693173,2.806927 -6.2693847,6.269385 -2.171e-4,3.462659 2.8067259,6.269832 6.2693847,6.2699 0.023088,-7.39e-4 0.046172,-0.0016 0.06925,-0.0026 v 0.01707 H 46.628006 v -0.02273 c 3.372161,-0.119937 6.044533,-2.887301 6.04666,-6.261593 -4.37e-4,-3.37551 -2.673283,-6.144753 -6.04666,-6.264734 v -0.02584 z"
       sodipodi:nodetypes="ccccccccccccc" />
    <text
       xml:space="preserve"
       style="font-style:normal;font-weight:normal;font-size:6.02848px;line-height:1.25;font-family:sans-serif;white-space:pre;inline-size:0;fill:#ffffff;fill-opacity:1;stroke:none;stroke-width:0.150712"
       x="13.991643"
       y="57.049797"
       id="text53563"
       transform="translate(-5.2916667,-10.583333)"><tspan
         id="tspan53561"
         style="fill:#ffffff;fill-opacity:1;stroke-width:0.150712"
         x="13.991643"
         y="57.049797">Home</tspan></text>
  </g>
</svg>
